<?xml version="1.0" standalone="no"?>
<!DOCTYPE svg PUBLIC "-//W3C//DTD SVG 20010904//EN"
 "http://www.w3.org/TR/2001/REC-SVG-20010904/DTD/svg10.dtd">
<svg version="1.0" xmlns="http://www.w3.org/2000/svg"
 width="1280.000000pt" height="968.000000pt" viewBox="0 0 1280.000000 968.000000"
 preserveAspectRatio="xMidYMid meet">
<metadata>
Created by potrace 1.15, written by Peter Selinger 2001-2017
</metadata>
<g transform="translate(0.000000,968.000000) scale(0.100000,-0.100000)"
fill="#009688" stroke="none">
<path d="M2920 9666 c-11 -10 -88 -18 -285 -30 -148 -9 -299 -21 -335 -26 -94
-13 -338 -36 -630 -60 -458 -37 -768 -72 -1015 -113 -105 -17 -174 -21 -355
-22 -285 0 -282 1 -279 -114 1 -42 -4 -93 -11 -112 -28 -77 21 -156 158 -257
95 -70 291 -266 342 -341 116 -173 198 -411 310 -896 18 -77 40 -176 51 -220
10 -44 47 -213 83 -375 183 -830 374 -1497 524 -1825 25 -55 96 -198 159 -318
187 -358 347 -616 478 -770 36 -42 65 -85 65 -96 0 -23 36 -51 65 -51 61 0
115 -32 191 -113 98 -104 227 -260 300 -362 31 -44 76 -102 100 -129 24 -26
92 -112 151 -190 146 -193 319 -409 390 -487 88 -97 130 -172 144 -256 17
-103 21 -106 73 -53 66 67 111 100 138 100 37 0 115 -55 198 -139 94 -95 154
-171 309 -389 148 -210 239 -319 359 -435 51 -48 92 -92 92 -97 0 -5 12 -9 28
-9 15 -1 47 -3 72 -7 54 -7 67 4 101 86 12 30 26 59 30 63 24 29 359 -193 540
-358 37 -33 86 -75 110 -92 24 -18 105 -79 179 -135 74 -56 176 -132 225 -169
50 -37 110 -93 135 -123 25 -30 50 -55 55 -55 17 -1 73 63 80 92 10 37 32 47
110 47 114 0 281 -51 549 -167 83 -36 189 -80 236 -99 47 -18 139 -60 205 -93
66 -33 139 -63 161 -67 38 -6 43 -4 64 26 l23 33 78 -6 c93 -7 313 -78 504
-161 376 -165 522 -215 583 -200 34 8 41 16 87 108 58 115 67 121 179 111 104
-10 223 -53 437 -161 283 -141 358 -166 390 -128 8 10 16 53 19 107 l5 91 50
25 c82 42 192 28 385 -49 126 -50 204 -73 395 -114 211 -45 289 -52 357 -32
29 8 123 20 208 26 155 11 365 33 489 50 36 5 118 11 181 15 231 12 382 38
598 104 18 5 68 29 110 52 42 23 94 51 114 62 40 20 39 19 21 92 -3 11 -24 52
-46 90 -82 139 -327 686 -377 842 -63 197 -73 255 -75 433 -1 152 -4 171 -28
240 -39 107 -126 284 -180 363 -86 129 -129 295 -103 396 31 121 -49 299 -262
581 -133 175 -202 337 -202 472 0 67 -4 87 -29 136 -45 88 -176 264 -306 407
-151 168 -232 277 -293 395 -60 115 -64 131 -66 246 -3 135 -34 194 -185 345
-64 63 -150 144 -191 180 -96 82 -102 88 -186 189 -99 118 -178 240 -199 308
-16 49 -17 65 -7 124 26 148 5 248 -50 248 -42 0 -122 47 -173 100 -73 75
-222 203 -455 390 -205 164 -468 414 -524 497 -15 23 -34 61 -42 83 -14 40
-13 43 11 72 35 42 29 61 -25 74 -75 19 -130 52 -220 135 -217 198 -831 670
-1125 864 -211 139 -279 177 -380 211 -102 34 -135 60 -196 153 -27 42 -62 85
-79 96 -16 11 -34 29 -41 41 -6 12 -28 31 -49 43 -113 63 -915 225 -1519 306
-660 88 -1316 135 -1899 135 -277 0 -323 2 -328 15 -8 19 -16 19 -34 1z"/>
</g>
</svg>
